<svg xmlns="http://www.w3.org/2000/svg" xmlns:xlink="http://www.w3.org/1999/xlink" contentStyleType="text/css" data-diagram-type="SEQUENCE" height="1380px" preserveAspectRatio="none" style="width:1481px;height:1380px;background:#FFFFFF;" version="1.1" viewBox="0 0 1481 1380" width="1481px" zoomAndPan="magnify"><defs/><g><rect fill="none" height="133.7969" style="stroke:#33475B;stroke-width:1.5;" width="1302.4502" x="162.5386" y="446.8594"/><g><title>You</title><rect fill="#000000" fill-opacity="0.00000" height="1220.7109" width="8" x="16.0669" y="80.1328"/><line style="stroke:#33475B;stroke-width:0.5;stroke-dasharray:5,5;" x1="20" x2="20" y1="80.1328" y2="1300.8438"/></g><g><title>AskPage</title><rect fill="#000000" fill-opacity="0.00000" height="1220.7109" width="8" x="259.2578" y="80.1328"/><line style="stroke:#33475B;stroke-width:0.5;stroke-dasharray:5,5;" x1="262.5386" x2="262.5386" y1="80.1328" y2="1300.8438"/></g><g><title>AudioWorklet</title><rect fill="#000000" fill-opacity="0.00000" height="1220.7109" width="8" x="575.5166" y="80.1328"/><line style="stroke:#33475B;stroke-width:0.5;stroke-dasharray:5,5;" x1="578.8479" x2="578.8479" y1="80.1328" y2="1300.8438"/></g><g><title>SpeechSocketHandler</title><rect fill="#000000" fill-opacity="0.00000" height="1220.7109" width="8" x="714.7107" y="80.1328"/><line style="stroke:#33475B;stroke-width:0.5;stroke-dasharray:5,5;" x1="718.1853" x2="718.1853" y1="80.1328" y2="1300.8438"/></g><g><title>TranscriptionRelay</title><rect fill="#000000" fill-opacity="0.00000" height="1220.7109" width="8" x="900.7219" y="80.1328"/><line style="stroke:#33475B;stroke-width:0.5;stroke-dasharray:5,5;" x1="903.8098" x2="903.8098" y1="80.1328" y2="1300.8438"/></g><g><title>OpenAI Realtime</title><rect fill="#000000" fill-opacity="0.00000" height="1220.7109" width="8" x="1320.1174" y="80.1328"/><line style="stroke:#33475B;stroke-width:0.5;stroke-dasharray:5,5;" x1="1323.2461" x2="1323.2461" y1="80.1328" y2="1300.8438"/></g><g class="participant participant-head" data-participant="you"><text fill="#000000" font-family="Helvetica" font-size="13" lengthAdjust="spacing" textLength="24.1338" x="5" y="77.0669">You</text><ellipse cx="20.0669" cy="13.5" fill="#FFE7BA" rx="8" ry="8" style="stroke:#B5651D;stroke-width:0.5;"/><path d="M20.0669,21.5 L20.0669,48.5 M7.0669,29.5 L33.0669,29.5 M20.0669,48.5 L7.0669,63.5 M20.0669,48.5 L33.0669,63.5" fill="none" style="stroke:#B5651D;stroke-width:0.5;"/></g><g class="participant participant-tail" data-participant="you"><text fill="#000000" font-family="Helvetica" font-size="13" lengthAdjust="spacing" textLength="24.1338" x="5" y="1311.9106">You</text><ellipse cx="20.0669" cy="1323.4766" fill="#FFE7BA" rx="8" ry="8" style="stroke:#B5651D;stroke-width:0.5;"/><path d="M20.0669,1331.4766 L20.0669,1358.4766 M7.0669,1339.4766 L33.0669,1339.4766 M20.0669,1358.4766 L7.0669,1373.4766 M20.0669,1358.4766 L33.0669,1373.4766" fill="none" style="stroke:#B5651D;stroke-width:0.5;"/></g><g class="participant participant-head" data-participant="ui"><rect fill="#E3F0FF" height="44.2656" rx="2.5" ry="2.5" style="stroke:#2D6CDF;stroke-width:0.5;" width="181.4385" x="172.5386" y="34.8672"/><text fill="#000000" font-family="Helvetica" font-size="13" lengthAdjust="spacing" textLength="55.25" x="235.6328" y="53.9341">AskPage</text><text fill="#000000" font-family="Helvetica" font-size="13" lengthAdjust="spacing" textLength="167.4385" x="179.5386" y="69.0669">useSpeech (lib/speech.ts)</text></g><g class="participant participant-tail" data-participant="ui"><rect fill="#E3F0FF" height="44.2656" rx="2.5" ry="2.5" style="stroke:#2D6CDF;stroke-width:0.5;" width="181.4385" x="172.5386" y="1299.8438"/><text fill="#000000" font-family="Helvetica" font-size="13" lengthAdjust="spacing" textLength="55.25" x="235.6328" y="1318.9106">AskPage</text><text fill="#000000" font-family="Helvetica" font-size="13" lengthAdjust="spacing" textLength="167.4385" x="179.5386" y="1334.0435">useSpeech (lib/speech.ts)</text></g><g class="participant participant-head" data-participant="worklet"><rect fill="#E3F0FF" height="44.2656" rx="2.5" ry="2.5" style="stroke:#2D6CDF;stroke-width:0.5;" width="101.3374" x="528.8479" y="34.8672"/><text fill="#000000" font-family="Helvetica" font-size="13" lengthAdjust="spacing" textLength="87.3374" x="535.8479" y="53.9341">AudioWorklet</text><text fill="#000000" font-family="Helvetica" font-size="13" lengthAdjust="spacing" textLength="44.605" x="557.2141" y="69.0669">pcm16</text></g><g class="participant participant-tail" data-participant="worklet"><rect fill="#E3F0FF" height="44.2656" rx="2.5" ry="2.5" style="stroke:#2D6CDF;stroke-width:0.5;" width="101.3374" x="528.8479" y="1299.8438"/><text fill="#000000" font-family="Helvetica" font-size="13" lengthAdjust="spacing" textLength="87.3374" x="535.8479" y="1318.9106">AudioWorklet</text><text fill="#000000" font-family="Helvetica" font-size="13" lengthAdjust="spacing" textLength="44.605" x="557.2141" y="1334.0435">pcm16</text></g><g class="participant participant-head" data-participant="handler"><rect fill="#E3F0FF" height="44.2656" rx="2.5" ry="2.5" style="stroke:#2D6CDF;stroke-width:0.5;" width="157.0508" x="640.1853" y="34.8672"/><text fill="#000000" font-family="Helvetica" font-size="13" lengthAdjust="spacing" textLength="143.0508" x="647.1853" y="53.9341">SpeechSocketHandler</text><text fill="#000000" font-family="Helvetica" font-size="13" lengthAdjust="spacing" textLength="96.7827" x="670.3193" y="69.0669">/api/speech/ws</text></g><g class="participant participant-tail" data-participant="handler"><rect fill="#E3F0FF" height="44.2656" rx="2.5" ry="2.5" style="stroke:#2D6CDF;stroke-width:0.5;" width="157.0508" x="640.1853" y="1299.8438"/><text fill="#000000" font-family="Helvetica" font-size="13" lengthAdjust="spacing" textLength="143.0508" x="647.1853" y="1318.9106">SpeechSocketHandler</text><text fill="#000000" font-family="Helvetica" font-size="13" lengthAdjust="spacing" textLength="96.7827" x="670.3193" y="1334.0435">/api/speech/ws</text></g><g class="participant participant-head" data-participant="relay"><rect fill="#E3F0FF" height="29.1328" rx="2.5" ry="2.5" style="stroke:#2D6CDF;stroke-width:0.5;" width="135.8242" x="836.8098" y="50"/><text fill="#000000" font-family="Helvetica" font-size="13" lengthAdjust="spacing" textLength="121.8242" x="843.8098" y="69.0669">TranscriptionRelay</text></g><g class="participant participant-tail" data-participant="relay"><rect fill="#E3F0FF" height="29.1328" rx="2.5" ry="2.5" style="stroke:#2D6CDF;stroke-width:0.5;" width="135.8242" x="836.8098" y="1299.8438"/><text fill="#000000" font-family="Helvetica" font-size="13" lengthAdjust="spacing" textLength="121.8242" x="843.8098" y="1318.9106">TranscriptionRelay</text></g><g class="participant participant-head" data-participant="openai"><rect fill="#E3F0FF" height="44.2656" rx="2.5" ry="2.5" style="stroke:#2D6CDF;stroke-width:0.5;" width="261.7427" x="1193.2461" y="34.8672"/><text fill="#000000" font-family="Helvetica" font-size="13" lengthAdjust="spacing" textLength="109.5605" x="1269.3372" y="53.9341">OpenAI Realtime</text><text fill="#000000" font-family="Helvetica" font-size="13" lengthAdjust="spacing" textLength="247.7427" x="1200.2461" y="69.0669">wss://&#8230;/realtime?intent=transcription</text></g><g class="participant participant-tail" data-participant="openai"><rect fill="#E3F0FF" height="44.2656" rx="2.5" ry="2.5" style="stroke:#2D6CDF;stroke-width:0.5;" width="261.7427" x="1193.2461" y="1299.8438"/><text fill="#000000" font-family="Helvetica" font-size="13" lengthAdjust="spacing" textLength="109.5605" x="1269.3372" y="1318.9106">OpenAI Realtime</text><text fill="#000000" font-family="Helvetica" font-size="13" lengthAdjust="spacing" textLength="247.7427" x="1200.2461" y="1334.0435">wss://&#8230;/realtime?intent=transcription</text></g><g class="message" data-participant-1="ui" data-participant-2="handler"><polygon fill="#33475B" points="706.7107,122.3984,716.7107,126.3984,706.7107,130.3984,710.7107,126.3984" style="stroke:#33475B;stroke-width:1;"/><line style="stroke:#33475B;stroke-width:1;" x1="263.2578" x2="712.7107" y1="126.3984" y2="126.3984"/><text fill="#000000" font-family="Helvetica" font-size="13" lengthAdjust="spacing" textLength="226.478" x="270.2578" y="106.1997">GET /api/speech/status (on mount)</text><text fill="#000000" font-family="Helvetica" font-size="13" lengthAdjust="spacing" textLength="130.0381" x="270.2578" y="121.3325">&#8594; no key, no button</text></g><g class="message" data-participant-1="you" data-participant-2="ui"><polygon fill="#33475B" points="251.2578,151.5313,261.2578,155.5313,251.2578,159.5313,255.2578,155.5313" style="stroke:#33475B;stroke-width:1;"/><line style="stroke:#33475B;stroke-width:1;" x1="20.0669" x2="257.2578" y1="155.5313" y2="155.5313"/><text fill="#000000" font-family="Helvetica" font-size="13" lengthAdjust="spacing" textLength="74.3374" x="27.0669" y="150.4653">tap the mic</text></g><g class="message" data-participant-1="ui" data-participant-2="ui"><line style="stroke:#33475B;stroke-width:1;" x1="263.2578" x2="305.2578" y1="184.6641" y2="184.6641"/><line style="stroke:#33475B;stroke-width:1;" x1="305.2578" x2="305.2578" y1="184.6641" y2="197.6641"/><line style="stroke:#33475B;stroke-width:1;" x1="264.2578" x2="305.2578" y1="197.6641" y2="197.6641"/><polygon fill="#33475B" points="274.2578,193.6641,264.2578,197.6641,274.2578,201.6641,270.2578,197.6641" style="stroke:#33475B;stroke-width:1;"/><text fill="#000000" font-family="Helvetica" font-size="13" lengthAdjust="spacing" textLength="297.064" x="270.2578" y="179.5981">getUserMedia({audio}) &#8212; first, inside the tap</text></g><g class="message" data-participant-1="ui" data-participant-2="handler"><polygon fill="#33475B" points="706.7107,237.9297,716.7107,241.9297,706.7107,245.9297,710.7107,241.9297" style="stroke:#33475B;stroke-width:1;"/><line style="stroke:#33475B;stroke-width:1;" x1="263.2578" x2="712.7107" y1="241.9297" y2="241.9297"/><text fill="#000000" font-family="Helvetica" font-size="13" lengthAdjust="spacing" textLength="148.4146" x="270.2578" y="221.731">WebSocket handshake</text><text fill="#000000" font-family="Helvetica" font-size="13" lengthAdjust="spacing" textLength="298.9873" x="270.2578" y="236.8638">(session cookie checked by the security filter)</text></g><g class="message" data-participant-1="handler" data-participant-2="relay"><polygon fill="#33475B" points="892.7219,267.0625,902.7219,271.0625,892.7219,275.0625,896.7219,271.0625" style="stroke:#33475B;stroke-width:1;"/><line style="stroke:#33475B;stroke-width:1;" x1="718.7107" x2="898.7219" y1="271.0625" y2="271.0625"/><text fill="#000000" font-family="Helvetica" font-size="13" lengthAdjust="spacing" textLength="112.3027" x="725.7107" y="265.9966">new relay, start()</text></g><g class="message" data-participant-1="relay" data-participant-2="openai"><polygon fill="#33475B" points="1312.1174,296.1953,1322.1174,300.1953,1312.1174,304.1953,1316.1174,300.1953" style="stroke:#33475B;stroke-width:1;"/><line style="stroke:#33475B;stroke-width:1;" x1="904.7219" x2="1318.1174" y1="300.1953" y2="300.1953"/><text fill="#000000" font-family="Helvetica" font-size="13" lengthAdjust="spacing" textLength="275.6279" x="911.7219" y="295.1294">open socket, Authorization: Bearer &lt;key&gt;</text></g><g class="message" data-participant-1="relay" data-participant-2="openai"><polygon fill="#33475B" points="1312.1174,340.4609,1322.1174,344.4609,1312.1174,348.4609,1316.1174,344.4609" style="stroke:#33475B;stroke-width:1;"/><line style="stroke:#33475B;stroke-width:1;" x1="904.7219" x2="1318.1174" y1="344.4609" y2="344.4609"/><text fill="#000000" font-family="Helvetica" font-size="13" lengthAdjust="spacing" textLength="234.8252" x="911.7219" y="324.2622">session.update {type: transcription,</text><text fill="#000000" font-family="Helvetica" font-size="13" lengthAdjust="spacing" textLength="395.3955" x="911.7219" y="339.395">audio/pcm 24 kHz, near_field, model, language, server_vad}</text></g><g class="message" data-participant-1="openai" data-participant-2="relay"><polygon fill="#33475B" points="915.7219,369.5938,905.7219,373.5938,915.7219,377.5938,911.7219,373.5938" style="stroke:#33475B;stroke-width:1;"/><line style="stroke:#33475B;stroke-width:1;stroke-dasharray:2,2;" x1="909.7219" x2="1323.1174" y1="373.5938" y2="373.5938"/><text fill="#000000" font-family="Helvetica" font-size="13" lengthAdjust="spacing" textLength="106.3105" x="921.7219" y="368.5278">session.updated</text></g><g class="message" data-participant-1="relay" data-participant-2="ui"><polygon fill="#33475B" points="274.2578,398.7266,264.2578,402.7266,274.2578,406.7266,270.2578,402.7266" style="stroke:#33475B;stroke-width:1;"/><line style="stroke:#33475B;stroke-width:1;stroke-dasharray:2,2;" x1="268.2578" x2="903.7219" y1="402.7266" y2="402.7266"/><text fill="#000000" font-family="Helvetica" font-size="13" lengthAdjust="spacing" textLength="103.3081" x="280.2578" y="397.6606">{type: "ready"}</text></g><g class="message" data-participant-1="ui" data-participant-2="worklet"><polygon fill="#33475B" points="567.5166,427.8594,577.5166,431.8594,567.5166,435.8594,571.5166,431.8594" style="stroke:#33475B;stroke-width:1;"/><line style="stroke:#33475B;stroke-width:1;" x1="263.2578" x2="573.5166" y1="431.8594" y2="431.8594"/><text fill="#000000" font-family="Helvetica" font-size="13" lengthAdjust="spacing" textLength="292.2588" x="270.2578" y="426.7935">AudioContext(24 kHz) + addModule(worklet)</text></g><path d="M162.5386,446.8594 L239.1626,446.8594 L239.1626,453.9922 L229.1626,463.9922 L162.5386,463.9922 L162.5386,446.8594" fill="#EEF2F7" style="stroke:#33475B;stroke-width:1.5;"/><rect fill="none" height="133.7969" style="stroke:#33475B;stroke-width:1.5;" width="1302.4502" x="162.5386" y="446.8594"/><text fill="#000000" font-family="Helvetica" font-size="13" font-weight="bold" lengthAdjust="spacing" textLength="31.624" x="177.5386" y="459.9263">loop</text><text fill="#000000" font-family="Helvetica" font-size="13" font-weight="bold" lengthAdjust="spacing" textLength="222.3457" x="254.1626" y="460.9263">[every 100 ms while listening]</text><g class="message" data-participant-1="worklet" data-participant-2="ui"><polygon fill="#33475B" points="274.2578,481.2578,264.2578,485.2578,274.2578,489.2578,270.2578,485.2578" style="stroke:#33475B;stroke-width:1;"/><line style="stroke:#33475B;stroke-width:1;stroke-dasharray:2,2;" x1="268.2578" x2="578.5166" y1="485.2578" y2="485.2578"/><text fill="#000000" font-family="Helvetica" font-size="13" lengthAdjust="spacing" textLength="270.1626" x="280.2578" y="480.1919">4800 bytes PCM16 (resampled if needed)</text></g><g class="message" data-participant-1="ui" data-participant-2="handler"><polygon fill="#33475B" points="706.7107,510.3906,716.7107,514.3906,706.7107,518.3906,710.7107,514.3906" style="stroke:#33475B;stroke-width:1;"/><line style="stroke:#33475B;stroke-width:1;" x1="263.2578" x2="712.7107" y1="514.3906" y2="514.3906"/><text fill="#000000" font-family="Helvetica" font-size="13" lengthAdjust="spacing" textLength="83.7891" x="270.2578" y="509.3247">binary frame</text></g><g class="message" data-participant-1="handler" data-participant-2="relay"><polygon fill="#33475B" points="892.7219,539.5234,902.7219,543.5234,892.7219,547.5234,896.7219,543.5234" style="stroke:#33475B;stroke-width:1;"/><line style="stroke:#33475B;stroke-width:1;" x1="718.7107" x2="898.7219" y1="543.5234" y2="543.5234"/><text fill="#000000" font-family="Helvetica" font-size="13" lengthAdjust="spacing" textLength="53.1426" x="725.7107" y="538.4575">onAudio</text></g><g class="message" data-participant-1="relay" data-participant-2="openai"><polygon fill="#33475B" points="1312.1174,568.6563,1322.1174,572.6563,1312.1174,576.6563,1316.1174,572.6563" style="stroke:#33475B;stroke-width:1;"/><line style="stroke:#33475B;stroke-width:1;" x1="904.7219" x2="1318.1174" y1="572.6563" y2="572.6563"/><text fill="#000000" font-family="Helvetica" font-size="13" lengthAdjust="spacing" textLength="287.2822" x="911.7219" y="567.5903">input_audio_buffer.append {audio: base64}</text></g><g class="message" data-participant-1="openai" data-participant-2="relay"><polygon fill="#33475B" points="915.7219,604.7891,905.7219,608.7891,915.7219,612.7891,911.7219,608.7891" style="stroke:#33475B;stroke-width:1;"/><line style="stroke:#33475B;stroke-width:1;stroke-dasharray:2,2;" x1="909.7219" x2="1323.1174" y1="608.7891" y2="608.7891"/><text fill="#000000" font-family="Helvetica" font-size="13" lengthAdjust="spacing" textLength="225.0181" x="921.7219" y="603.7231">input_audio_buffer.speech_started</text></g><g class="message" data-participant-1="relay" data-participant-2="ui"><polygon fill="#33475B" points="274.2578,633.9219,264.2578,637.9219,274.2578,641.9219,270.2578,637.9219" style="stroke:#33475B;stroke-width:1;"/><line style="stroke:#33475B;stroke-width:1;stroke-dasharray:2,2;" x1="268.2578" x2="903.7219" y1="637.9219" y2="637.9219"/><text fill="#000000" font-family="Helvetica" font-size="13" lengthAdjust="spacing" textLength="220.6572" x="280.2578" y="632.856">{type: "speech", state: "started"}</text></g><g class="message" data-participant-1="openai" data-participant-2="relay"><polygon fill="#33475B" points="915.7219,663.0547,905.7219,667.0547,915.7219,671.0547,911.7219,667.0547" style="stroke:#33475B;stroke-width:1;"/><line style="stroke:#33475B;stroke-width:1;stroke-dasharray:2,2;" x1="909.7219" x2="1323.1174" y1="667.0547" y2="667.0547"/><text fill="#000000" font-family="Helvetica" font-size="13" lengthAdjust="spacing" textLength="186.3354" x="921.7219" y="661.9888">&#8230;transcription.delta {delta}</text></g><g class="message" data-participant-1="relay" data-participant-2="ui"><polygon fill="#33475B" points="274.2578,692.1875,264.2578,696.1875,274.2578,700.1875,270.2578,696.1875" style="stroke:#33475B;stroke-width:1;"/><line style="stroke:#33475B;stroke-width:1;stroke-dasharray:2,2;" x1="268.2578" x2="903.7219" y1="696.1875" y2="696.1875"/><text fill="#000000" font-family="Helvetica" font-size="13" lengthAdjust="spacing" textLength="133.1294" x="280.2578" y="691.1216">{type: "delta", text}</text></g><g class="message" data-participant-1="ui" data-participant-2="you"><polygon fill="#33475B" points="31.0669,721.3203,21.0669,725.3203,31.0669,729.3203,27.0669,725.3203" style="stroke:#33475B;stroke-width:1;"/><line style="stroke:#33475B;stroke-width:1;stroke-dasharray:2,2;" x1="25.0669" x2="262.2578" y1="725.3203" y2="725.3203"/><text fill="#000000" font-family="Helvetica" font-size="13" lengthAdjust="spacing" textLength="219.1909" x="37.0669" y="720.2544">words appear in the box (interim)</text></g><g class="message" data-participant-1="openai" data-participant-2="relay"><polygon fill="#33475B" points="915.7219,750.4531,905.7219,754.4531,915.7219,758.4531,911.7219,754.4531" style="stroke:#33475B;stroke-width:1;"/><line style="stroke:#33475B;stroke-width:1;stroke-dasharray:2,2;" x1="909.7219" x2="1323.1174" y1="754.4531" y2="754.4531"/><text fill="#000000" font-family="Helvetica" font-size="13" lengthAdjust="spacing" textLength="252.332" x="921.7219" y="749.3872">&#8230;transcription.completed {transcript}</text></g><g class="message" data-participant-1="relay" data-participant-2="ui"><polygon fill="#33475B" points="274.2578,779.5859,264.2578,783.5859,274.2578,787.5859,270.2578,783.5859" style="stroke:#33475B;stroke-width:1;"/><line style="stroke:#33475B;stroke-width:1;stroke-dasharray:2,2;" x1="268.2578" x2="903.7219" y1="783.5859" y2="783.5859"/><text fill="#000000" font-family="Helvetica" font-size="13" lengthAdjust="spacing" textLength="128.21" x="280.2578" y="778.52">{type: "final", text}</text></g><g class="message" data-participant-1="ui" data-participant-2="you"><polygon fill="#33475B" points="31.0669,808.7188,21.0669,812.7188,31.0669,816.7188,27.0669,812.7188" style="stroke:#33475B;stroke-width:1;"/><line style="stroke:#33475B;stroke-width:1;stroke-dasharray:2,2;" x1="25.0669" x2="262.2578" y1="812.7188" y2="812.7188"/><text fill="#000000" font-family="Helvetica" font-size="13" lengthAdjust="spacing" textLength="197.209" x="37.0669" y="807.6528">phrase committed to the draft</text></g><rect fill="#EEEEEE" height="3" style="stroke:#EEEEEE;stroke-width:1;" width="1474.9888" x="0" y="841.2852"/><line style="stroke:#000000;stroke-width:1;" x1="0" x2="1474.9888" y1="841.2852" y2="841.2852"/><line style="stroke:#000000;stroke-width:1;" x1="0" x2="1474.9888" y1="844.2852" y2="844.2852"/><rect fill="#EEEEEE" height="23.1328" style="stroke:#000000;stroke-width:2;" width="279.7383" x="597.6252" y="830.7188"/><text fill="#000000" font-family="Helvetica" font-size="13" font-weight="bold" lengthAdjust="spacing" textLength="261.2124" x="603.6252" y="846.7856">Stop &#8212; a handshake, not a hang-up</text><g class="message" data-participant-1="you" data-participant-2="ui"><polygon fill="#33475B" points="251.2578,880.9844,261.2578,884.9844,251.2578,888.9844,255.2578,884.9844" style="stroke:#33475B;stroke-width:1;"/><line style="stroke:#33475B;stroke-width:1;" x1="20.0669" x2="257.2578" y1="884.9844" y2="884.9844"/><text fill="#000000" font-family="Helvetica" font-size="13" lengthAdjust="spacing" textLength="114.5054" x="27.0669" y="879.9185">tap the mic again</text></g><g class="message" data-participant-1="ui" data-participant-2="ui"><line style="stroke:#33475B;stroke-width:1;" x1="263.2578" x2="305.2578" y1="914.1172" y2="914.1172"/><line style="stroke:#33475B;stroke-width:1;" x1="305.2578" x2="305.2578" y1="914.1172" y2="927.1172"/><line style="stroke:#33475B;stroke-width:1;" x1="264.2578" x2="305.2578" y1="927.1172" y2="927.1172"/><polygon fill="#33475B" points="274.2578,923.1172,264.2578,927.1172,274.2578,931.1172,270.2578,927.1172" style="stroke:#33475B;stroke-width:1;"/><text fill="#000000" font-family="Helvetica" font-size="13" lengthAdjust="spacing" textLength="182.4126" x="270.2578" y="909.0513">microphone off, socket kept</text></g><g class="message" data-participant-1="ui" data-participant-2="handler"><polygon fill="#33475B" points="706.7107,952.25,716.7107,956.25,706.7107,960.25,710.7107,956.25" style="stroke:#33475B;stroke-width:1;"/><line style="stroke:#33475B;stroke-width:1;" x1="263.2578" x2="712.7107" y1="956.25" y2="956.25"/><text fill="#000000" font-family="Helvetica" font-size="13" lengthAdjust="spacing" textLength="106.0884" x="270.2578" y="951.1841">{"type": "stop"}</text></g><g class="message" data-participant-1="handler" data-participant-2="relay"><polygon fill="#33475B" points="892.7219,981.3828,902.7219,985.3828,892.7219,989.3828,896.7219,985.3828" style="stroke:#33475B;stroke-width:1;"/><line style="stroke:#33475B;stroke-width:1;" x1="718.7107" x2="898.7219" y1="985.3828" y2="985.3828"/><text fill="#000000" font-family="Helvetica" font-size="13" lengthAdjust="spacing" textLength="45.7476" x="725.7107" y="980.3169">onStop</text></g><g class="message" data-participant-1="relay" data-participant-2="openai"><polygon fill="#33475B" points="1312.1174,1010.5156,1322.1174,1014.5156,1312.1174,1018.5156,1316.1174,1014.5156" style="stroke:#33475B;stroke-width:1;"/><line style="stroke:#33475B;stroke-width:1;" x1="904.7219" x2="1318.1174" y1="1014.5156" y2="1014.5156"/><text fill="#000000" font-family="Helvetica" font-size="13" lengthAdjust="spacing" textLength="174.7192" x="911.7219" y="1009.4497">input_audio_buffer.commit</text></g><g class="message" data-participant-1="relay" data-participant-2="relay"><line style="stroke:#33475B;stroke-width:1;" x1="904.7219" x2="946.7219" y1="1043.6484" y2="1043.6484"/><line style="stroke:#33475B;stroke-width:1;" x1="946.7219" x2="946.7219" y1="1043.6484" y2="1056.6484"/><line style="stroke:#33475B;stroke-width:1;" x1="905.7219" x2="946.7219" y1="1056.6484" y2="1056.6484"/><polygon fill="#33475B" points="915.7219,1052.6484,905.7219,1056.6484,915.7219,1060.6484,911.7219,1056.6484" style="stroke:#33475B;stroke-width:1;"/><text fill="#000000" font-family="Helvetica" font-size="13" lengthAdjust="spacing" textLength="102.9971" x="911.7219" y="1038.5825">grace timer, 4 s</text></g><g class="message" data-participant-1="openai" data-participant-2="relay"><polygon fill="#33475B" points="915.7219,1081.7813,905.7219,1085.7813,915.7219,1089.7813,911.7219,1085.7813" style="stroke:#33475B;stroke-width:1;"/><line style="stroke:#33475B;stroke-width:1;stroke-dasharray:2,2;" x1="909.7219" x2="1323.1174" y1="1085.7813" y2="1085.7813"/><text fill="#000000" font-family="Helvetica" font-size="13" lengthAdjust="spacing" textLength="280.6807" x="921.7219" y="1080.7153">&#8230;transcription.completed (the last phrase)</text></g><g class="message" data-participant-1="relay" data-participant-2="ui"><polygon fill="#33475B" points="274.2578,1110.9141,264.2578,1114.9141,274.2578,1118.9141,270.2578,1114.9141" style="stroke:#33475B;stroke-width:1;"/><line style="stroke:#33475B;stroke-width:1;stroke-dasharray:2,2;" x1="268.2578" x2="903.7219" y1="1114.9141" y2="1114.9141"/><text fill="#000000" font-family="Helvetica" font-size="13" lengthAdjust="spacing" textLength="128.21" x="280.2578" y="1109.8481">{type: "final", text}</text></g><g class="message" data-participant-1="relay" data-participant-2="openai"><polygon fill="#33475B" points="1312.1174,1140.0469,1322.1174,1144.0469,1312.1174,1148.0469,1316.1174,1144.0469" style="stroke:#33475B;stroke-width:1;"/><line style="stroke:#33475B;stroke-width:1;" x1="904.7219" x2="1318.1174" y1="1144.0469" y2="1144.0469"/><text fill="#000000" font-family="Helvetica" font-size="13" lengthAdjust="spacing" textLength="33.4839" x="911.7219" y="1138.981">close</text></g><g class="message" data-participant-1="relay" data-participant-2="handler"><polygon fill="#33475B" points="729.7107,1169.1797,719.7107,1173.1797,729.7107,1177.1797,725.7107,1173.1797" style="stroke:#33475B;stroke-width:1;"/><line style="stroke:#33475B;stroke-width:1;" x1="723.7107" x2="903.7219" y1="1173.1797" y2="1173.1797"/><text fill="#000000" font-family="Helvetica" font-size="13" lengthAdjust="spacing" textLength="162.0112" x="735.7107" y="1168.1138">close the browser socket</text></g><g class="message" data-participant-1="ui" data-participant-2="you"><polygon fill="#33475B" points="31.0669,1198.3125,21.0669,1202.3125,31.0669,1206.3125,27.0669,1202.3125" style="stroke:#33475B;stroke-width:1;"/><line style="stroke:#33475B;stroke-width:1;stroke-dasharray:2,2;" x1="25.0669" x2="262.2578" y1="1202.3125" y2="1202.3125"/><text fill="#000000" font-family="Helvetica" font-size="13" lengthAdjust="spacing" textLength="152.8135" x="37.0669" y="1197.2466">ready to read, edit, Ask</text></g><path d="M736,1215.3125 L736,1285.3125 L1072,1285.3125 L1072,1225.3125 L1062,1215.3125 L736,1215.3125" fill="#FFF8DC" style="stroke:#C8B560;stroke-width:0.5;"/><path d="M1062,1215.3125 L1062,1225.3125 L1072,1225.3125 L1062,1215.3125" fill="#FFF8DC" style="stroke:#C8B560;stroke-width:0.5;"/><text fill="#000000" font-family="Helvetica" font-size="13" lengthAdjust="spacing" textLength="271.8193" x="742" y="1232.3794">Five minutes is the limit for one dictation.</text><text fill="#000000" font-family="Helvetica" font-size="13" lengthAdjust="spacing" textLength="307.4106" x="742" y="1247.5122">A service error is one {type: "error", message}</text><text fill="#000000" font-family="Helvetica" font-size="13" lengthAdjust="spacing" textLength="289.9546" x="742" y="1262.645">frame and a close; typing mid-phrase aborts</text><text fill="#000000" font-family="Helvetica" font-size="13" lengthAdjust="spacing" textLength="315.1611" x="742" y="1277.7778">from the browser side and keeps what is shown.</text><!--SRC=[bLPRRXit5FsVLTog7vLGsVBRXbgdy4jnWRWDuXH10GC6DRmZ4PeXfoJ7Ycm8o5SNK7GDNLXMqaFEo9PYkKZzOGruN-U-3lbDQSMe49IBcQaykOAzq2BvZgvBvdHCtf3dZxvFVinKgDIQScmqaz4KVfoIt8qoRuLsgLMbLv0LHd8Ub8B8u9-jjKHPaj9mNxkJCcSQcrmgFOf74vvjqZlMacsV73D99KPM5Avdu-6c6oTkedGfS4X3aKv6rbHQdfdSMFfs4F-MD2Hdeihzm6X_hUwPjdVN2tyH1TCbvtViLIgMTDnOI3CDy3AHErwId5XhfatStTszm_tJPJF-esATCZqaH6-5XLTL2krFlqHyiJlO0k9L9MEHQgEmStvmTXuKJb9lxEdpZ2yEJqyUnSkMf_i7-zld4BrH6RzHcbUa3MIYrt1N_fVe6UIBmSxWC9alfQkDhrDTWszmT7uM9CiHpeu0RWik4X5WK-jtKxL8EC8G9kLJ9QXruYPlnOXlTEMu6SbsheOz5xytlUj4kqfzOLP9PJuOEydPt-WoBROFejwqFbfLhlrUctJ2_b9epAIzqJrHgYPAR-gYyRYMhHg_NvxxTumzYhesVArg_bgoFlaPqorohmgaD7Mkt-jz_lGFXhi- -qbfpzeVhonJz6TWB5IIL8esNYsGK9zUNxodPQZE2ryvQiSThBJltEZFV_w51eNLweRVOUMzqGag7Jp17tPRb8lzRWB4un7xtnpRAyOIjXz4AEcyGvy__KsPiivtiSbX_-lr5-KpR1zuM1Srdc6J9aYwxTYvG16fCHF5b8uPAfA6i-Z7SLfPvMS8aNksdMJX3fvZJU5NyxJ-xXBIjRxTIMeHTEewGIbya8lXktHI-R6nwbw4UlRfb8M5onzHabThJ1k4crKfHPXhFokvlqfmtHiTwz73QD7E7aqkxr5SkBtD5EUoMnDW5xIgHnNc5qZPth6zlHDodZIHDfPoMeqf5wWMhMWmj30eSjQQDwLkfXdoEEzd839mTRl6qw7lIKXvPMILSxjHxIH9Ran932mpsjxQeW9BCLQWuLmvp1wO3ikwSFmOV-y8giEPPqTlpwws3wXjsOcYpD4vbI5pbYmxiFno1ePA2qJAm18CyPfk6Xt1G_Yy4-2Noj_6IjyEgop31O0R13S1rUC8_yBnmTuymLcohgvhFDIRSXj7v-LArrgjE68-7jJwhRNjmnAlpCSckky5FSIV-KineXGXGjVgda8ZB6O_T42wS5rYff14t8sX-KZjm11M5PslGf6Qq2AWHiX7mOjmClGgNm-d75iK6ZjR5Ce7V-5T04ZIYimdoV4nNNkCLU06yRJjWMzyVJ3Qg4ewFdw9TaYC1Du5I-Ip_DR8icwpoc2nqZyZceTMoA0LcsHAT6Zjc0M4oLVDM9tca-x21ruYkD83KUCviqVkV_QW7PBDXVDDEJjVruZdaDFSu2doUFvKY2YePmMF4r1EKxRLPaOI2HqC7rq2lGUAT9CaYVUu0JSqznVHGDs51kaghBvoqNUkK1tAS6-7xaYL-iYhc-4L4dbEeKgCvv4D5a5daLWyH685s0wiE8T5P0P21fYJ2Fy7Wd9uSE5vkD7CdHWQwrtKDiLgVk422jOJvZ9GcV0Xg1kRAG05fWWv_Gi0]--></g></svg>