<svg xmlns="http://www.w3.org/2000/svg" xmlns:xlink="http://www.w3.org/1999/xlink" contentStyleType="text/css" data-diagram-type="DESCRIPTION" height="747px" preserveAspectRatio="none" style="width:980px;height:747px;background:#FFFFFF;" version="1.1" viewBox="0 0 980 747" width="980px" zoomAndPan="magnify"><?plantuml 1.2026.6?><defs/><g><!--cluster vps--><g class="cluster" data-qualified-name="vps" data-source-line="41" id="ent0002"><polygon fill="#EEF2F7" points="16,171.79,26,161.79,818,161.79,818,712.02,808,722.02,16,722.02,16,171.79" style="stroke:#33475B;stroke-width:1;stroke-linejoin:miter;stroke-miterlimit:10;"/><line style="stroke:#33475B;stroke-width:1;" x1="808" x2="818" y1="171.79" y2="161.79"/><line style="stroke:#33475B;stroke-width:1;" x1="16" x2="808" y1="171.79" y2="171.79"/><line style="stroke:#33475B;stroke-width:1;" x1="808" x2="808" y1="171.79" y2="722.02"/><text fill="#12243A" font-family="Helvetica" font-size="14" font-weight="700" lengthAdjust="spacing" textLength="276.7119" x="274.644" y="187.7851">Hetzner VPS (Ubuntu &#183; CX22 &#183; 4GB)</text></g><!--cluster pw--><g class="cluster" data-qualified-name="vps.pw" data-source-line="42" id="ent0003"><polygon fill="#E8EEF5" points="40,219.79,50,209.79,477,209.79,477,514.13,467,524.13,40,524.13,40,219.79" style="stroke:#33475B;stroke-width:1;stroke-linejoin:miter;stroke-miterlimit:10;"/><line style="stroke:#33475B;stroke-width:1;" x1="467" x2="477" y1="219.79" y2="209.79"/><line style="stroke:#33475B;stroke-width:1;" x1="40" x2="467" y1="219.79" y2="219.79"/><line style="stroke:#33475B;stroke-width:1;" x1="467" x2="467" y1="219.79" y2="524.13"/><text fill="#12243A" font-family="Helvetica" font-size="14" font-weight="700" lengthAdjust="spacing" textLength="271.7148" x="118.6426" y="235.7851">personal-website compose project</text></g><!--cluster gtp--><g class="cluster" data-qualified-name="vps.gtp" data-source-line="47" id="ent0007"><polygon fill="#EAF3EC" points="501,392.39,511,382.39,794,382.39,794,688.02,784,698.02,501,698.02,501,392.39" style="stroke:#33475B;stroke-width:1;stroke-linejoin:miter;stroke-miterlimit:10;"/><line style="stroke:#33475B;stroke-width:1;" x1="784" x2="794" y1="392.39" y2="382.39"/><line style="stroke:#33475B;stroke-width:1;" x1="501" x2="784" y1="392.39" y2="392.39"/><line style="stroke:#33475B;stroke-width:1;" x1="784" x2="784" y1="392.39" y2="698.02"/><text fill="#12243A" font-family="Helvetica" font-size="14" font-weight="700" lengthAdjust="spacing" textLength="217.916" x="534.542" y="408.3851">grindtrack compose project</text><text fill="#12243A" font-family="Helvetica" font-size="14" font-weight="700" lengthAdjust="spacing" textLength="150.4932" x="568.2534" y="424.682">/opt/grindtrack/gt2</text></g><!--entity nginx--><g class="entity" data-qualified-name="vps.pw.nginx" data-source-line="43" id="ent0004"><rect fill="#E3F0FF" height="52.5938" rx="2.5" ry="2.5" style="stroke:#2D6CDF;stroke-width:0.5;" width="137.0996" x="118.45" y="249.79"/><text fill="#12243A" font-family="Helvetica" font-size="14" lengthAdjust="spacing" textLength="38.8076" x="128.45" y="272.7851">nginx</text><text fill="#12243A" font-family="Helvetica" font-size="14" lengthAdjust="spacing" textLength="117.0996" x="128.45" y="289.082">(TLS &#183; :80 / :443)</text></g><!--entity certbot--><g class="entity" data-qualified-name="vps.pw.certbot" data-source-line="44" id="ent0005"><rect fill="#E3F0FF" height="52.5938" rx="2.5" ry="2.5" style="stroke:#2D6CDF;stroke-width:0.5;" width="108.5869" x="304.71" y="249.79"/><text fill="#12243A" font-family="Helvetica" font-size="14" lengthAdjust="spacing" textLength="50.4971" x="314.71" y="272.7851">certbot</text><text fill="#12243A" font-family="Helvetica" font-size="14" lengthAdjust="spacing" textLength="88.5869" x="314.71" y="289.082">(renew loop)</text></g><!--entity certs--><g class="entity" data-qualified-name="vps.pw.certs" data-source-line="45" id="ent0006"><path d="M117.88,437.54 L158.88,437.54 A3.75,3.75 0 0 1 161.38,440.04 L168.38,458.54 L388.1261,458.54 A2.5,2.5 0 0 1 390.6261,461.04 L390.6261,505.6337 A2.5,2.5 0 0 1 388.1261,508.1337 L117.88,508.1337 A2.5,2.5 0 0 1 115.38,505.6337 L115.38,440.04 A2.5,2.5 0 0 1 117.88,437.54" fill="#FFF3D6" style="stroke:#B5891D;stroke-width:0.5;"/><line style="stroke:#B5891D;stroke-width:0.5;" x1="115.38" x2="168.38" y1="458.54" y2="458.54"/><text fill="#4A3B10" font-family="Helvetica" font-size="14" lengthAdjust="spacing" textLength="207.334" x="125.38" y="478.5351">/opt/personal-website/certbot</text><text fill="#4A3B10" font-family="Helvetica" font-size="14" lengthAdjust="spacing" textLength="245.2461" x="125.38" y="494.832">shared: /etc/letsencrypt + webroot</text></g><!--entity gt--><g class="entity" data-qualified-name="vps.gtp.gt" data-source-line="48" id="ent0008"><rect fill="#E3F0FF" height="68.8906" rx="2.5" ry="2.5" style="stroke:#2D6CDF;stroke-width:0.5;" width="146.6494" x="516.68" y="438.39"/><text fill="#12243A" font-family="Helvetica" font-size="14" lengthAdjust="spacing" textLength="103.3252" x="526.68" y="461.3851">grindtrack-app</text><text fill="#12243A" font-family="Helvetica" font-size="14" lengthAdjust="spacing" textLength="126.6494" x="526.68" y="477.682">Spring Boot :8080</text><text fill="#12243A" font-family="Helvetica" font-size="14" lengthAdjust="spacing" textLength="117.209" x="526.68" y="493.9789">API + baked SPA</text></g><!--entity gtdb--><g class="entity" data-qualified-name="vps.gtp.gtdb" data-source-line="49" id="ent0009"><path d="M517.11,614.13 C517.11,604.13 595.0011,604.13 595.0011,604.13 C595.0011,604.13 672.8922,604.13 672.8922,614.13 L672.8922,672.0206 C672.8922,682.0206 595.0011,682.0206 595.0011,682.0206 C595.0011,682.0206 517.11,682.0206 517.11,672.0206 L517.11,614.13" fill="#E4F9EC" style="stroke:#2F9E57;stroke-width:0.5;"/><path d="M517.11,614.13 C517.11,624.13 595.0011,624.13 595.0011,624.13 C595.0011,624.13 672.8922,624.13 672.8922,614.13" fill="none" style="stroke:#2F9E57;stroke-width:0.5;"/><text fill="#123322" font-family="Helvetica" font-size="14" lengthAdjust="spacing" textLength="94.7461" x="527.11" y="641.1251">grindtrack-db</text><text fill="#123322" font-family="Helvetica" font-size="14" lengthAdjust="spacing" textLength="82.6055" x="527.11" y="657.422">Postgres 16</text><text fill="#123322" font-family="Helvetica" font-size="14" lengthAdjust="spacing" textLength="135.7822" x="527.11" y="673.7189">schema: grindtrack</text></g><!--entity Browser--><g class="entity" data-qualified-name="Browser" data-source-line="39" id="ent0001"><ellipse cx="186.9995" cy="14" fill="#FFE7BA" rx="8" ry="8" style="stroke:#B5651D;stroke-width:0.5;"/><path d="M186.9995,22 L186.9995,49 M173.9995,30 L199.9995,30 M186.9995,49 L173.9995,64 M186.9995,49 L199.9995,64" fill="none" style="stroke:#B5651D;stroke-width:0.5;"/><text fill="#000000" font-family="Helvetica" font-size="14" lengthAdjust="spacing" textLength="57.0391" x="158.48" y="78.4951">Browser</text></g><!--entity LE--><g class="entity" data-qualified-name="LE" data-source-line="53" id="ent0010"><path d="M844.3397,459.7282 C847.1238,453.2547 853.1459,453.8534 856.8267,458.7427 C859.5664,451.9073 865.5553,451.1249 870.1844,456.7108 C873.8561,451.0355 878.1001,450.5159 882.8193,455.465 C887.1604,449.6833 892.6257,448.9245 896.9708,455.4605 C901.6052,449.8501 905.5255,450.9536 908.4589,457.1199 C912.8853,449.3264 917.3731,449.4037 922.6192,456.3313 C927.7467,451.0452 931.8522,451.6277 935.0383,458.3406 C939.9576,452.3405 945.5311,453.3244 949.355,459.6164 C958.0738,462.0371 958.9771,467.3726 953.247,473.7672 C959.3688,479.9945 958.0654,487.0674 948.8967,488.8987 C944.7436,495.9641 940.4451,495.4322 935.6977,489.5024 C933.0426,497.309 928.4004,497.2896 923.021,492.1753 C919.9077,499.1768 913.4172,498.8965 909.8913,492.5821 C907.0004,499.0927 900.3659,500.4962 895.5528,494.8492 C889.8848,499.205 885.4645,499.4819 882.8148,491.6854 C879.2425,497.2697 873.3129,496.4258 870.5486,490.8012 C866.575,496.5124 859.8535,495.7908 856.7493,489.7779 C852.1706,495.6214 846.8431,496.2934 842.8058,489.1947 C833.314,487.9392 831.9245,480.2554 837.4742,473.7929 C831.9475,466.5507 834.8642,459.6473 844.3397,459.7282" fill="#F0E9FF" style="stroke:#6E44C4;stroke-width:0.5;"/><text fill="#000000" font-family="Helvetica" font-size="14" lengthAdjust="spacing" textLength="91.3281" x="849.34" y="477.6751">Let's Encrypt</text></g><!--link Browser to nginx--><g class="link" data-entity-1="ent0001" data-entity-2="ent0004" data-link-type="dependency" data-source-line="55" id="lnk11"><path d="M187,82.18 C187,129.24 187,203.67 187,244.37" fill="none" id="Browser-to-nginx" style="stroke:#2D6CDF;stroke-width:2;"/><polygon fill="#2D6CDF" points="187,249.37,191,240.37,187,244.37,183,240.37,187,249.37" style="stroke:#2D6CDF;stroke-width:2;stroke-linejoin:miter;stroke-miterlimit:10;"/><text fill="#1A2B3C" font-family="Helvetica" font-size="14" lengthAdjust="spacing" textLength="44.96" x="245.5449" y="125.7851">HTTPS</text><text fill="#1A2B3C" font-family="Helvetica" font-size="14" lengthAdjust="spacing" textLength="160.0498" x="188" y="142.082">track.caseyrquinn.com</text></g><!--link nginx to gt--><g class="link" data-entity-1="ent0004" data-entity-2="ent0008" data-link-type="dependency" data-source-line="56" id="lnk12"><path d="M255.96,295.28 C266.33,297.8 276.93,300.25 287,302.39 C364.2,318.74 392.71,294.63 462,332.39 C508.02,357.47 543.5596,401.3083 565.9396,433.8983" fill="none" id="nginx-to-gt" style="stroke:#2D6CDF;stroke-width:2;"/><polygon fill="#2D6CDF" points="568.77,438.02,566.9726,428.3365,565.9396,433.8983,560.3778,432.8653,568.77,438.02" style="stroke:#2D6CDF;stroke-width:2;stroke-linejoin:miter;stroke-miterlimit:10;"/><text fill="#1A2B3C" font-family="Helvetica" font-size="14" lengthAdjust="spacing" textLength="184.1943" x="566.2221" y="346.3851">HTTP grindtrack-app:8080</text><text fill="#1A2B3C" font-family="Helvetica" font-size="14" lengthAdjust="spacing" textLength="299.5986" x="508.52" y="362.682">shared net: personal-website_app-network</text></g><!--link gt to gtdb--><g class="link" data-entity-1="ent0008" data-entity-2="ent0009" data-link-type="dependency" data-source-line="57" id="lnk13"><path d="M591,507.47 C591.83,535.28 592.8519,569.7722 593.7119,598.7922" fill="none" id="gt-to-gtdb" style="stroke:#2F9E57;stroke-width:2;"/><polygon fill="#2F9E57" points="593.86,603.79,597.5916,594.6755,593.7119,598.7922,589.5952,594.9124,593.86,603.79" style="stroke:#2F9E57;stroke-width:2;stroke-linejoin:miter;stroke-miterlimit:10;"/><text fill="#1A2B3C" font-family="Helvetica" font-size="14" lengthAdjust="spacing" textLength="34.2891" x="648.323" y="554.1251">JDBC</text><text fill="#1A2B3C" font-family="Helvetica" font-size="14" lengthAdjust="spacing" textLength="143.0352" x="593.95" y="570.422">private 'internal' net</text></g><!--link certbot to LE--><g class="link" data-entity-1="ent0005" data-entity-2="ent0010" data-link-type="dependency" data-source-line="58" id="lnk14"><path d="M413.57,277.61 C520.35,279.58 752.13,288.91 817,332.39 C858.36,360.11 878.6705,412.7098 887.9505,444.5398" fill="none" id="certbot-to-LE" style="stroke:#33475B;stroke-width:1;stroke-dasharray:7,7;"/><polygon fill="#33475B" points="889.35,449.34,890.6711,439.5801,887.9505,444.5398,882.9908,441.8193,889.35,449.34" style="stroke:#33475B;stroke-width:1;stroke-linejoin:miter;stroke-miterlimit:10;"/><text fill="#1A2B3C" font-family="Helvetica" font-size="14" lengthAdjust="spacing" textLength="112.9775" x="851.35" y="354.3851">ACME (webroot)</text></g><!--link nginx to certs--><g class="link" data-entity-1="ent0004" data-entity-2="ent0006" data-link-type="dependency" data-source-line="59" id="lnk15"><path d="M118.21,302.78 C106.14,310.44 95.17,320.16 88,332.39 C80.35,345.42 80.74,353.13 88,366.39 C104.98,397.4 131.0231,428.3525 161.1531,444.9925" fill="none" id="nginx-to-certs" style="stroke:#33475B;stroke-width:1;stroke-dasharray:7,7;"/><polygon fill="#33475B" points="165.53,447.4097,159.5854,439.5572,161.1531,444.9925,155.7178,446.5602,165.53,447.4097" style="stroke:#33475B;stroke-width:1;stroke-linejoin:miter;stroke-miterlimit:10;"/><text fill="#1A2B3C" font-family="Helvetica" font-size="14" lengthAdjust="spacing" textLength="179.7715" x="89" y="354.3851">reads live/*/fullchain.pem</text></g><!--link certbot to certs--><g class="link" data-entity-1="ent0005" data-entity-2="ent0006" data-link-type="dependency" data-source-line="60" id="lnk16"><path d="M332.28,302.82 C324.08,311.66 315.52,321.96 309,332.39 C288.19,365.68 274.0317,424.2704 264.6217,453.5104" fill="none" id="certbot-to-certs" style="stroke:#33475B;stroke-width:1;stroke-dasharray:7,7;"/><polygon fill="#33475B" points="263.09,458.27,269.6548,450.9281,264.6217,453.5104,262.0394,448.4773,263.09,458.27" style="stroke:#33475B;stroke-width:1;stroke-linejoin:miter;stroke-miterlimit:10;"/><text fill="#1A2B3C" font-family="Helvetica" font-size="14" lengthAdjust="spacing" textLength="147.0479" x="310" y="354.3851">writes renewed certs</text></g><?plantuml-src TLDHRvj847xdLupIXoJNix41suaVAW66zaxfoQfpLQKwEYqmmLpmBhUxZkkSyhlwtb_MOQ49jXDUa7Q--UQR-MPEOOPLANPhv1gqg4GfyXq83dg5y07r0qS9d-UBFdn2dg6SWaA4h62vP6jbI_FOLojBtHMyOlG8gLXNWXFVGkzA18cfPZmliGD9M7gNIx7XMKW59Ro9pTT1P7ZBDgME1T4K3mX3x-NWNsnTwoplKHSfws3KYcLYM_0SRbcfkiLzASMshUkwtcGK70PhuXOmz9t03Ji0bcfw_zy228wRY2Q1NqU4fAcqhy5eF1hEhCSE1nSPDXHTOAi5e5lUSJpNRz-QUIQYp8xOZhH4KUp4avTSULbxvCO3Ck10aZCRXxFuHKbT1RSa2LyTIkpEniT3kRYaeUmHUxuR30Txn1dJB64ANz7inPTHUAIP7aUJGyskwpXxr6afDjahaWVHvV4inf7dXHvnMCqA1BGe2gLb6JTFEhS2Ptyd6wutyECxX5ySf_vxxuFp4s0AxYjbgZPP5KebE2jxMqnKeR6nYHgkfFYN3iUaL5lgzO8S7PbCWAyyB_Yt9J-xlbhKvDEB0TWmzJpt_APECE46cQBKYT24fLF5BPH2L0seZHXOQ-29BIfj7sgodpZefYHcKx1HftQ9MY5FvQxIy1O8AuLezDPuHRoFJstcik2PbZJemmQNtDHy1jYvTWnBhYjgsu_TAFpLzZEgnwfgoHULh0yyeCBr32u6I-xF_o0r2Rl331Pp_wPXCkbFozIHqykI9PyBfNE92ePZwZ5TuPfDuHdJgiaIqnBvtwpEoHNgKmLHCm83keeigrqBw7rjh-Vt-c1lUkyQLs0A7wwlvuibDzpzb0Jjv7-RWlC-ZSPgGCV9kMupONy8RTkDCy1HJ-7Glty8rgF8LiWxYtXgSdCZ7V8i8Ve_Pq6uv3JJUqQRU5fmZP9uJcjQgrq2wFVVKP-4ziEF4Porlf-tmkkeiPy04bcce2pkqVxDljsKPRfY1UzNkDuZ-mNVIjAgmAmfjMAUVm80?></g></svg>